<svg xmlns="http://www.w3.org/2000/svg" width="1440" height="1440" preserveAspectRatio="xMidYMid meet" version="1.0" viewBox="0 0 1080 1080"><metadata>Created by potrace 1.14, written by Peter Selinger 2001-2017</metadata><g fill="#000" stroke="none"><path d="M1800 5400 l0 -3600 3600 0 3600 0 0 3600 0 3600 -3600 0 -3600 0 0 -3600z m2400 0 l0 -1200 -600 0 -600 0 0 1200 0 1200 600 0 600 0 0 -1200z m3600 0 l0 -1200 -600 0 -600 0 0 1200 0 1200 600 0 600 0 0 -1200z" transform="translate(0.000000,1080.000000) scale(0.100000,-0.100000)"/></g></svg>